<svg xmlns="http://www.w3.org/2000/svg" width="18.198" height="25.584" viewBox="0 0 18.198 25.584"><path d="M0,25.584Zm12.356-9.943v0Zm-6.59,0v0ZM13.18,5.763A4.117,4.117,0,0,1,9.061,9.878v1.647a5.764,5.764,0,0,0,5.766-5.763ZM9.061,9.878A4.117,4.117,0,0,1,4.942,5.763H3.295a5.764,5.764,0,0,0,5.766,5.763ZM4.942,5.763A4.117,4.117,0,0,1,9.061,1.647V0A5.764,5.764,0,0,0,3.295,5.763ZM9.061,1.647A4.119,4.119,0,0,1,13.18,5.763h1.647A5.764,5.764,0,0,0,9.061,0ZM1.647,25.584v-5H0v5Zm4.119-9.119h6.59V14.817H5.766Zm10.708,4.119.108,5H18.2l-.076-5H16.475Zm-4.119-4.119a4.119,4.119,0,0,1,4.119,4.119h1.647a5.766,5.766,0,0,0-5.766-5.766ZM1.647,20.583a4.119,4.119,0,0,1,4.119-4.119V14.817A5.766,5.766,0,0,0,0,20.583Z" transform="translate(0 0)" fill="#42495b"/></svg>