<svg xmlns="http://www.w3.org/2000/svg" width="31.486" height="35.294" viewBox="0 0 31.486 35.294"><path d="M318.917,314.2c0,.4-.566.712-1.258.712H311.1c-.694,0-1.26-.313-1.26-.712V312.92c0-.4.566-.711,1.26-.711h6.559c.692,0,1.258.314,1.258.711V314.2Zm.029-3.814H309.8a1,1,0,0,0-.224.026v-.026h-1.538v6.368h1.538v-.026a.991.991,0,0,0,.224.026h9.141a1.713,1.713,0,0,0,1.763-1.672v-3.022a1.714,1.714,0,0,0-1.763-1.674Z" transform="translate(-292.888 -293.195)" fill="#646b7b"/><path d="M318.917,462.391c0,.388-.566.7-1.258.7H311.1c-.694,0-1.26-.313-1.26-.7V461.1c0-.385.566-.711,1.26-.711h6.559c.692,0,1.258.326,1.258.711v1.286Zm.029-3.822H309.8a1.056,1.056,0,0,0-.224.027v-.027h-1.538v6.378h1.538v-.026a.989.989,0,0,0,.224.026h9.141a1.719,1.719,0,0,0,1.763-1.673v-3.033a1.713,1.713,0,0,0-1.763-1.673Z" transform="translate(-292.888 -433.175)" fill="#646b7b"/><path d="M65.867,15.571V34.663s.018.631-.548.631h-.675a.654.654,0,0,1-.63-.674V17.182a1.6,1.6,0,0,0-1.584-1.611H37.853a1.6,1.6,0,0,0-1.593,1.611V34.627a.624.624,0,0,1-.639.666h-.495a.7.7,0,0,1-.746-.7V15.571a1.8,1.8,0,0,1,1.8-1.8h15.59c.011-.017.017-.026.029-.045s0-.018.009-.018a.858.858,0,0,1,.09-.144l.017-.018a4.555,4.555,0,0,1,3.194-2.2L57.2,7.68c0-.009.009-.009.009-.018a.649.649,0,0,0-.09-.7.8.8,0,0,0-.081-.1L54.588,4.019,53.417,7.1,50.53,4.126,50.4,3.991,48.848,2.435,52.2,1.158h.01a2.21,2.21,0,0,1,.3-.388A2.119,2.119,0,0,1,55.478.483a2.037,2.037,0,0,1,.217,2.528l3.382,3.94a.139.139,0,0,1,.045.054.157.157,0,0,1,.027.046.339.339,0,0,1-.009.189.238.238,0,0,1-.018.063.4.4,0,0,1-.045.081V7.4L56.81,11.378a4.6,4.6,0,0,1,2.959,2.042l.208.342v.009h4.094a1.805,1.805,0,0,1,1.8,1.8Z" transform="translate(-34.381 0.001)" fill="#646b7b"/></svg>